<svg xmlns="http://www.w3.org/2000/svg" width="100" height="100" viewBox="0 0 100 100"><path d="M65.8 98.7c-2.5.5-3.4-1.1-3.4-2.4 0-1.6.1-7 .1-13.7 0-4.7-1.6-7.7-3.4-9.3 11.1-1.2 22.8-5.5 22.8-24.7 0-5.5-1.9-9.9-5.1-13.4.5-1.3 2.2-6.3-.5-13.2 0 0-4.2-1.3-13.7 5.1-4-1.1-8.3-1.7-12.5-1.7-4.2 0-8.5.6-12.5 1.7-9.7-6.5-13.9-5.1-13.9-5.1-2.7 6.9-1 12-.5 13.2-3.2 3.5-5.2 8-5.2 13.4C18 67.8 29.7 72 40.8 73.3c-1.4 1.2-2.7 3.5-3.2 6.7-2.9 1.3-10.1 3.5-14.5-4.2 0 0-2.6-4.8-7.7-5.2 0 0-4.9-.1-.3 3 0 0 3.3 1.5 5.6 7.3 0 0 2.9 8.9 16.8 5.9 0 4.2.1 8.1.1 9.3 0 1.3-.9 2.9-3.4 2.4C14.3 92.1 0 73.3 0 51.2c0-27.6 22.4-50 50-50s50 22.4 50 50c0 22.1-14.3 40.9-34.2 47.5z" fill="#fff"/></svg>