<svg xmlns="http://www.w3.org/2000/svg" width="100" height="100" viewBox="0 0 100 100"><path d="M77 0H23.7c-7.4 0-9.5 5.5-9.5 9v84.7c0 3.9 2.1 5.4 3.3 5.9 1.2.5 4.5.9 6.4-1.4 0 0 25.2-29.2 25.6-29.7.7-.7.7-.7 1.3-.7h16.3c6.8 0 7.9-4.9 8.7-7.8.6-2.4 7.3-36.6 9.5-47.4C87 4.5 84.9 0 77 0zm-1.2 60.2c.6-2.4 7.3-36.6 9.5-47.4m-11.4 1.6l-2.2 11.7c-.3 1.3-1.9 2.6-3.3 2.6H47.6c-2.3 0-4 1.6-4 3.9v2.5c0 2.3 1.7 4 4 4h17.6c1.7 0 3.3 1.8 2.9 3.6-.4 1.8-2 10.5-2.2 11.5-.2 1-1.3 2.6-3.3 2.6H48.2c-2.6 0-3.4.3-5.2 2.5-1.8 2.2-17.5 21.1-17.5 21.1-.2.2-.3.1-.3-.1v-66c0-1.5 1.3-3.2 3.2-3.2h42.8c1.6-.1 3.1 1.4 2.7 3.3z" fill="#fff"/></svg>