<!DOCTYPE svg PUBLIC "-//W3C//DTD SVG 1.1//EN" "http://www.w3.org/Graphics/SVG/1.1/DTD/svg11.dtd">
<svg version="1.1" id="socialicious" xmlns="http://www.w3.org/2000/svg" xmlns:xlink="http://www.w3.org/1999/xlink" x="0px"
	 y="0px" width="100px" height="100px" viewBox="0 0 100 100" style="enable-background:new 0 0 100 100;" xml:space="preserve">
<path style="fill:#fff" d="M65.8,98.7c-2.5,0.5-3.4-1.1-3.4-2.4c0-1.6,0.1-7,0.1-13.7c0-4.7-1.6-7.7-3.4-9.3
	c11.1-1.2,22.8-5.5,22.8-24.7c0-5.5-1.9-9.9-5.1-13.4c0.5-1.3,2.2-6.3-0.5-13.2c0,0-4.2-1.3-13.7,5.1c-4-1.1-8.3-1.7-12.5-1.7
	c-4.2,0-8.5,0.6-12.5,1.7C27.9,20.6,23.7,22,23.7,22c-2.7,6.9-1,12-0.5,13.2c-3.2,3.5-5.2,8-5.2,13.4c0,19.2,11.7,23.4,22.8,24.7
	c-1.4,1.2-2.7,3.5-3.2,6.7c-2.9,1.3-10.1,3.5-14.5-4.2c0,0-2.6-4.8-7.7-5.2c0,0-4.9-0.1-0.3,3c0,0,3.3,1.5,5.6,7.3
	c0,0,2.9,8.9,16.8,5.9c0,4.2,0.1,8.1,0.1,9.3c0,1.3-0.9,2.9-3.4,2.4C14.3,92.1,0,73.3,0,51.2c0-27.6,22.4-50,50-50
	c27.6,0,50,22.4,50,50C100,73.3,85.7,92.1,65.8,98.7z"/>
</svg>
