<!DOCTYPE svg PUBLIC "-//W3C//DTD SVG 1.1//EN" "http://www.w3.org/Graphics/SVG/1.1/DTD/svg11.dtd">
<svg version="1.1" id="socialicious" xmlns="http://www.w3.org/2000/svg" xmlns:xlink="http://www.w3.org/1999/xlink" x="0px"
	 y="0px" width="100px" height="100px" viewBox="0 0 100 100" style="enable-background:new 0 0 100 100;" xml:space="preserve">
<path style="fill:#fff" d="M77,0c0,0-46,0-53.3,0c-7.4,0-9.5,5.5-9.5,9c0,3.5,0,84.7,0,84.7c0,3.9,2.1,5.4,3.3,5.9
	c1.2,0.5,4.5,0.9,6.4-1.4c0,0,25.2-29.2,25.6-29.7c0.7-0.7,0.7-0.7,1.3-0.7c1.3,0,11,0,16.3,0c6.8,0,7.9-4.9,8.7-7.8
	c0.6-2.4,7.3-36.6,9.5-47.4C87,4.5,84.9,0,77,0z M75.8,60.2c0.6-2.4,7.3-36.6,9.5-47.4 M73.9,14.4l-2.2,11.7
	c-0.3,1.3-1.9,2.6-3.3,2.6c-1.5,0-20.8,0-20.8,0c-2.3,0-4,1.6-4,3.9v2.5c0,2.3,1.7,4,4,4c0,0,16,0,17.6,0c1.7,0,3.3,1.8,2.9,3.6
	c-0.4,1.8-2,10.5-2.2,11.5c-0.2,1-1.3,2.6-3.3,2.6c-1.7,0-14.4,0-14.4,0c-2.6,0-3.4,0.3-5.2,2.5c-1.8,2.2-17.5,21.1-17.5,21.1
	c-0.2,0.2-0.3,0.1-0.3-0.1V14.3c0-1.5,1.3-3.2,3.2-3.2c0,0,41.1,0,42.8,0C72.8,11,74.3,12.5,73.9,14.4z"/>
</svg>
