<!DOCTYPE svg PUBLIC "-//W3C//DTD SVG 1.1//EN" "http://www.w3.org/Graphics/SVG/1.1/DTD/svg11.dtd">
<svg version="1.1" id="socialicious" xmlns="http://www.w3.org/2000/svg" xmlns:xlink="http://www.w3.org/1999/xlink" x="0px"
	 y="0px" width="100px" height="100px" viewBox="0 0 100 100" style="enable-background:new 0 0 100 100;" xml:space="preserve">
<path style="fill:#fff" d="M100,22.3h-4c-1.5,0-3.2,1.9-3.2,3.3v49.2c0,1.4,1.7,3.4,3.2,3.4h4v11.4H64.5V78.1h7.1V26.5h-0.3l-17.5,63H40.2
	l-17.3-63h-0.3v51.6h7.5v11.4H0V78.1h3.8c1.6,0,3.3-2,3.3-3.4V25.6c0-1.4-1.7-3.3-3.3-3.3H0V10.5h37.5l12.3,45.9h0.3l12.4-45.9H100
	V22.3z"/>
</svg>
