<svg xmlns="http://www.w3.org/2000/svg" width="100" height="100" viewBox="0 0 100 100"><path d="M98.7 39.9c-.7-3.2-1.6-6.4-2.9-9.4-1.2-3-2.8-5.8-4.6-8.5-1.8-2.6-3.8-5.1-6.1-7.4-2.2-2.3-4.7-4.3-7.4-6.1-2.7-1.8-5.5-3.4-8.5-4.6-3-1.3-6.2-2.3-9.4-2.9-6.6-1.3-13.5-1.3-20 0-3.2.7-6.3 1.6-9.4 2.9-3 1.3-5.8 2.8-8.5 4.6-2.6 1.8-5.1 3.8-7.4 6.1-2.2 2.3-4.3 4.8-6.1 7.4-1.8 2.7-3.3 5.5-4.6 8.5-1.3 3-2.2 6.2-2.9 9.4-.7 3.3-1 6.7-1 10.1 0 3.4.3 6.8 1 10.1.7 3.2 1.6 6.4 2.9 9.4 1.2 3 2.8 5.8 4.6 8.5 1.8 2.6 3.8 5.1 6.1 7.4 2.2 2.3 4.7 4.3 7.4 6.1 2.7 1.8 5.5 3.4 8.5 4.6 3 1.3 6.2 2.3 9.4 2.9 3.3.7 6.6 1 10 1 3.4 0 6.7-.3 10-1 3.2-.7 6.4-1.6 9.4-2.9 2.9-1.3 5.8-2.8 8.5-4.6 2.6-1.8 5.1-3.8 7.4-6.1 2.3-2.3 4.3-4.8 6.1-7.4 1.8-2.7 3.3-5.5 4.6-8.5 1.3-3 2.2-6.2 2.9-9.4.7-3.3 1-6.7 1-10.1.1-3.4-.3-6.8-1-10.1zm-57-30.5c2.7-.6 5.5-.8 8.3-.8 2.8 0 5.6.3 8.3.8 2.6.5 5.2 1.4 7.7 2.4 2.4 1 4.8 2.3 7 3.8 1.5 1 2.9 2.1 4.2 3.3-1.5 2-7.8 9.6-21.6 14.7-6.4-11.8-13.4-21.4-15.3-23.9.5-.1.9-.2 1.4-.3zM12 33.9c1-2.5 2.3-4.8 3.8-7s3.2-4.3 5-6.1c1.9-1.9 3.9-3.6 6.1-5.1 1.7-1.2 3.5-2.2 5.3-3.1 1.8 2.5 8.7 12.1 15.2 23.6-17.8 4.7-33.5 5.1-37.7 5.1.6-2.5 1.3-5 2.3-7.4zm7 43.4c-1.1-1.3-2.2-2.7-3.1-4.1-1.5-2.2-2.8-4.6-3.8-7-1.1-2.5-1.9-5.1-2.4-7.8-.6-2.7-.8-5.5-.8-8.4v-1.4c4.5 0 23-.3 42.1-6 1.2 2.4 2.4 4.8 3.4 7.1-.6.2-1.1.3-1.7.5C32.6 56.8 21.3 73.5 19 77.3zm47 10.9c-2.5 1.1-5.1 1.9-7.7 2.4-5.4 1.1-11.2 1.1-16.6 0-2.6-.5-5.2-1.4-7.7-2.4-2.4-1-4.8-2.3-7-3.8-.9-.6-1.8-1.3-2.7-2 1.8-3.3 10.6-17.9 32.6-25.6.1 0 .2-.1.3-.1 5.7 14.8 8.2 27.2 8.8 31.5.1 0 .1 0 0 0zm24.4-29.8c-.6 2.6-1.4 5.2-2.4 7.7s-2.3 4.8-3.8 7-3.2 4.3-5 6.1c-1.8 1.8-3.8 3.5-5.9 4.9-.6-3.5-2.9-15.2-8.1-29.5 12.2-2 22.9.9 25.6 1.6-.2.9-.3 1.5-.4 2.2zM62.5 48.2c-.3-.7-.6-1.4-.9-2.2-.9-2.1-1.8-4.1-2.8-6.1 14.5-5.9 21.4-14.1 23-16.1.8 1 1.6 2 2.3 3.1 1.5 2.2 2.8 4.6 3.8 7 1.1 2.5 1.9 5.1 2.4 7.8.5 2.5.8 5.2.8 7.8-2.9-.7-15.6-3-28.6-1.3z" fill="#fff"/></svg>