<svg xmlns="http://www.w3.org/2000/svg" width="100" height="100" viewBox="0 0 100 100"><path d="M100 19c-3.7 1.6-7.6 2.7-11.8 3.2 4.2-2.5 7.5-6.6 9-11.4-4 2.4-8.4 4.1-13 5-3.7-4-9.1-6.5-15-6.5-11.3 0-20.5 9.2-20.5 20.5 0 1.6.2 3.2.5 4.7-17.1-.9-32.2-9-42.3-21.4-1.8 3-2.8 6.6-2.8 10.3 0 7.1 3.6 13.4 9.1 17.1-3.4-.1-6.5-1-9.3-2.6v.3c0 9.9 7.1 18.2 16.5 20.1-1.7.5-3.5.7-5.4.7-1.3 0-2.6-.1-3.9-.4 2.6 8.1 10.2 14.1 19.2 14.2-7 5.5-15.9 8.8-25.5 8.8-1.7 0-3.3-.1-4.9-.3 9.1 5.8 19.9 9.2 31.4 9.2 37.7 0 58.4-31.3 58.4-58.4 0-.9 0-1.8-.1-2.7 4.2-2.7 7.7-6.3 10.4-10.4z" fill="#fff"/></svg>