<!DOCTYPE svg PUBLIC "-//W3C//DTD SVG 1.1//EN" "http://www.w3.org/Graphics/SVG/1.1/DTD/svg11.dtd">
<svg version="1.1" id="socialicious" xmlns="http://www.w3.org/2000/svg" xmlns:xlink="http://www.w3.org/1999/xlink" x="0px"
	 y="0px" width="100px" height="100px" viewBox="0 0 100 100" style="enable-background:new 0 0 100 100;" xml:space="preserve">
<g>
	<polygon style="fill:#fff" points="99.7,44.4 86.5,44.4 86.5,31.3 79.8,31.3 79.8,44.4 66.7,44.4 66.7,50.9 79.8,50.9 79.8,64 86.5,64 
		86.5,50.9 99.7,50.9 	"/>
	<path style="fill:#fff" d="M58.1,5.3h-7.9c3.1,2.5,9.1,7.3,9.1,17.2c0,9.7-5.6,14.3-11.2,18.6c-1.7,1.7-3.7,3.5-3.7,6.4
		c0,2.9,2,4.4,3.5,5.6l4.8,3.7c5.8,4.8,11.2,9.3,11.2,18.3c0,12.3-12.5,24.8-35.3,24.8C9.2,100,0.3,90.9,0.3,81.2
		c0-4.7,2.4-11.4,10.2-16c8.2-5,19.4-5.6,25.4-6c-1.9-2.4-4-4.8-4-8.9c0-2.2,0.7-3.5,1.3-5.1c-1.5,0.1-2.9,0.3-4.3,0.3
		c-14.1,0-22.1-10.3-22.1-20.6c0-6,1.9-13.1,7.6-18C22.1,0.7,31.8,0,39,0l27.7,0L58.1,5.3z M23.4,64.9C20.5,66,12,69.1,12,78.4
		s9.2,16,23.4,16c12.8,0,19.5-6,19.5-14.1c0-6.7-4.4-10.2-14.5-17.3c-1.1-0.1-1.7-0.1-3-0.1C36.2,62.8,29,63.1,23.4,64.9 M30.9,4.8
		c-3.5,0-7.2,1.4-9.3,4c-2.3,2.8-2.9,6.6-2.9,10c0,8.8,5.2,23.3,16.6,23.3c3.3,0,6.9-1.9,9-4c3.1-3,3.3-6.9,3.3-9.2
		C47.6,19.4,41.9,4.8,30.9,4.8"/>
</g>
</svg>
