<svg width="100" height="100" viewBox="0 0 100 100" fill="none" xmlns="http://www.w3.org/2000/svg"><path d="M96.2929 22.0662C94.8501 11.4576 85.503 3.09734 74.4228 1.47734C72.5534 1.2036 65.4706 0.207367 49.0634 0.207367H48.9409C32.5292 0.207367 29.0082 1.2036 27.1389 1.47734C16.3671 3.05247 6.53009 10.5646 4.14343 21.2987C2.99547 26.5851 2.87296 32.4458 3.08622 37.8219C3.39022 45.5315 3.44921 53.2276 4.15704 60.9058C4.64638 66.0061 5.50003 71.0657 6.71158 76.0467C8.98027 85.2462 18.1639 92.9019 27.1615 96.0253C36.7948 99.2825 47.1546 99.8232 57.081 97.587C58.1729 97.3357 59.2529 97.0439 60.3206 96.7119C62.73 95.9535 65.5568 95.1053 67.6349 93.6154C67.6634 93.5946 67.6868 93.5676 67.7033 93.5365C67.7197 93.5054 67.729 93.471 67.7301 93.4359V85.9957C67.7296 85.9629 67.7218 85.9306 67.7071 85.9013C67.6923 85.8719 67.6711 85.8461 67.6449 85.8259C67.6189 85.8057 67.5885 85.7915 67.5562 85.7843C67.5238 85.7772 67.4903 85.7773 67.458 85.7847C61.0982 87.2872 54.5811 88.0404 48.0425 88.0285C36.7899 88.0285 33.7634 82.7467 32.8967 80.5477C32.2001 78.6473 31.7577 76.6651 31.5809 74.6511C31.5791 74.6173 31.5854 74.5835 31.5992 74.5525C31.613 74.5216 31.6342 74.4943 31.6606 74.4729C31.6872 74.4515 31.7185 74.4366 31.7519 74.4294C31.7853 74.422 31.82 74.4228 31.8532 74.4313C38.107 75.9235 44.5177 76.6767 50.951 76.6751C52.4982 76.6751 54.0409 76.6751 55.5882 76.6347C62.0585 76.4552 68.8781 76.1276 75.244 74.898C75.4029 74.8666 75.5616 74.8396 75.6978 74.7992C85.739 72.892 95.2947 66.9057 96.2657 51.7467C96.302 51.1499 96.3928 45.4956 96.3928 44.8763C96.3973 42.7716 97.078 29.9463 96.2929 22.0662ZM80.8386 59.8916H70.2803V34.3127C70.2803 28.9276 68.0115 26.1813 63.397 26.1813C58.3242 26.1813 55.7833 29.4303 55.7833 35.8473V49.8485H45.2884V35.8473C45.2884 29.4303 42.7429 26.1813 37.6701 26.1813C33.0828 26.1813 30.7914 28.9276 30.7868 34.3127V59.8916H20.2375V33.5363C20.2375 28.1513 21.6275 23.8732 24.4073 20.7019C27.2749 17.5382 31.0365 15.9138 35.7054 15.9138C41.1094 15.9138 45.193 17.969 47.9154 22.0752L50.5427 26.4371L53.1743 22.0752C55.8967 17.969 59.9804 15.9138 65.3753 15.9138C70.0397 15.9138 73.8011 17.5382 76.6778 20.7019C79.4578 23.8701 80.8477 28.1482 80.8477 33.5363L80.8386 59.8916Z"/></svg>
