<svg width="400" height="300" viewBox="0 0 400 300" fill="none" xmlns="http://www.w3.org/2000/svg"><path fill="#fff" d="M0 0h400v300H0z"/><path d="M223.826 22.243c-55.853 20.3-301.62 80.256-340.022 4.428C-154.598-49.154 7.096-220.645 88.632-244.702c81.535-24.058 309.51 58.112 319.388 116.7C417.897-69.41 279.68 1.943 223.826 22.243v0zm125.776 291.182c56.073 62.202 312.899 13.413 338.82-69.057 25.924-82.47-156.796-269.433-238.373-250.502-81.575 18.928-156.521 257.361-100.447 319.559v0z" stroke="#fafafa" stroke-width="5" stroke-miterlimit="10"/><path d="M-371.122 507.671c85.148 87.943 418.9-46.446 462.629-160.977C135.233 232.158-24.028-90.478-146.116-81.666c-122.088 8.81-310.155 501.399-225.006 589.337v0z" stroke="#fafafa" stroke-width="5" stroke-miterlimit="10"/></svg>