<svg width="1270" height="760" fill="none" xmlns="http://www.w3.org/2000/svg"><g clip-path="url(#clip0_25880_991)"><path fill="#3627E6" d="M0 0h1270v760H0z"/><path d="M1506.1 1159.91c-35.73.4-78.89-24.52-96.4-55.66-17.52-31.14-60.68-56.06-96.4-55.66-35.73.41-78.89-24.51-96.41-55.654-17.51-31.142-60.67-56.061-96.4-55.657-35.72.403-78.88-24.515-96.4-55.658-17.51-31.142-60.673-56.06-96.4-55.657-35.727.403-78.887-24.515-96.401-55.657-17.515-31.143-60.675-56.061-96.402-55.658-35.727.404-78.887-24.515-96.401-55.657-17.514-31.142-60.675-56.061-96.402-55.658-35.727.404-78.887-24.515-96.401-55.657-17.514-31.142-60.675-56.061-96.402-55.658-35.727.404-78.887-24.515-96.401-55.657-17.514-31.142-60.675-56.061-96.402-55.657-35.727.403-78.887-24.516-96.401-55.658-17.514-31.142-60.675-56.061-96.402-55.657-35.727.403-78.887-24.516-96.401-55.658-17.514-31.142-60.675-56.061-96.402-55.657-35.727.403-78.887-24.515-96.401-55.658-17.514-31.142-60.675-56.06-96.402-55.657M1459.93 1239.87c-35.73.41-78.89-24.51-96.4-55.65-17.51-31.15-60.68-56.06-96.4-55.66-35.73.4-78.89-24.52-96.4-55.66-17.52-31.14-60.68-56.06-96.41-55.66-35.72.41-78.882-24.511-96.397-55.653-17.514-31.142-60.674-56.061-96.401-55.658-35.727.404-78.887-24.515-96.402-55.657-17.514-31.142-60.674-56.061-96.401-55.657-35.727.403-78.887-24.516-96.401-55.658-17.515-31.142-60.675-56.061-96.402-55.657-35.727.403-78.887-24.516-96.401-55.658-17.515-31.142-60.675-56.06-96.402-55.657-35.727.403-78.887-24.515-96.401-55.658-17.515-31.142-60.675-56.06-96.402-55.657-35.727.403-78.887-24.515-96.401-55.657-17.514-31.143-60.675-56.061-96.402-55.658-35.727.404-78.887-24.515-96.401-55.657-17.514-31.142-60.675-56.061-96.402-55.658-35.727.404-78.887-24.515-96.401-55.657-17.514-31.142-60.675-56.061-96.402-55.658M1413.76 1319.84c-35.72.4-78.88-24.52-96.4-55.66-17.51-31.14-60.67-56.06-96.4-55.66-35.73.41-78.89-24.51-96.4-55.65-17.52-31.14-60.68-56.06-96.4-55.66-35.73.4-78.89-24.52-96.405-55.66-17.514-31.14-60.674-56.058-96.401-55.655-35.727.403-78.888-24.515-96.402-55.658-17.514-31.142-60.674-56.06-96.401-55.657-35.727.404-78.887-24.515-96.402-55.657-17.514-31.142-60.674-56.061-96.401-55.658-35.727.404-78.887-24.515-96.402-55.657-17.514-31.142-60.674-56.061-96.401-55.658-35.727.404-78.887-24.515-96.401-55.657-17.515-31.142-60.675-56.061-96.402-55.658-35.727.404-78.887-24.515-96.401-55.657-17.515-31.142-60.675-56.061-96.402-55.657-35.727.403-78.887-24.516-96.401-55.658-17.514-31.142-60.675-56.061-96.402-55.657-35.727.403-78.887-24.515-96.401-55.658-17.514-31.142-60.675-56.06-96.402-55.657M1367.59 1399.8c-35.72.41-78.88-24.51-96.4-55.65-17.51-31.14-60.67-56.06-96.4-55.66-35.73.4-78.89-24.52-96.4-55.66-17.51-31.14-60.67-56.06-96.401-55.65-35.727.4-78.888-24.52-96.402-55.66-17.514-31.14-60.674-56.06-96.401-55.66-35.727.4-78.888-24.51-96.402-55.66-17.514-31.139-60.674-56.058-96.401-55.654-35.727.403-78.887-24.516-96.402-55.658-17.514-31.142-60.674-56.061-96.401-55.657-35.727.403-78.887-24.516-96.402-55.658-17.514-31.142-60.674-56.061-96.401-55.657-35.727.403-78.887-24.515-96.402-55.658-17.514-31.142-60.674-56.06-96.401-55.657-35.727.403-78.887-24.515-96.401-55.657-17.515-31.143-60.675-56.061-96.402-55.658-35.727.403-78.887-24.515-96.401-55.657-17.515-31.142-60.675-56.061-96.402-55.658-35.727.404-78.887-24.515-96.401-55.657-17.514-31.142-60.675-56.061-96.402-55.658M1321.43 1479.77c-35.73.4-78.89-24.51-96.4-55.66-17.52-31.14-60.68-56.06-96.41-55.65-35.72.4-78.88-24.52-96.4-55.66-17.51-31.14-60.672-56.06-96.399-55.66-35.727.4-78.888-24.51-96.402-55.66-17.514-31.14-60.674-56.06-96.401-55.65-35.727.4-78.888-24.52-96.402-55.66-17.514-31.14-60.674-56.06-96.401-55.66-35.727.4-78.888-24.51-96.402-55.656-17.514-31.143-60.674-56.061-96.401-55.658-35.727.404-78.888-24.515-96.402-55.657-17.514-31.142-60.674-56.061-96.401-55.658-35.727.404-78.888-24.515-96.402-55.657-17.514-31.142-60.674-56.061-96.401-55.658-35.727.404-78.887-24.515-96.402-55.657-17.514-31.142-60.674-56.061-96.401-55.657-35.727.403-78.887-24.516-96.402-55.658-17.514-31.142-60.674-56.061-96.401-55.657-35.727.403-78.887-24.516-96.402-55.658-17.514-31.142-60.674-56.061-96.401-55.657M1275.26 1559.74c-35.73.4-78.89-24.52-96.4-55.66-17.52-31.14-60.68-56.06-96.4-55.66-35.73.4-78.89-24.51-96.406-55.66-17.514-31.14-60.674-56.06-96.401-55.65-35.727.4-78.888-24.52-96.402-55.66-17.514-31.14-60.674-56.06-96.401-55.66-35.727.4-78.888-24.51-96.402-55.66-17.514-31.14-60.674-56.06-96.401-55.65-35.727.4-78.888-24.52-96.402-55.66-17.514-31.14-60.674-56.06-96.401-55.66-35.727.4-78.888-24.514-96.402-55.656-17.514-31.142-60.674-56.061-96.401-55.657-35.727.403-78.888-24.516-96.402-55.658-17.514-31.142-60.674-56.061-96.401-55.657-35.727.403-78.888-24.515-96.402-55.658-17.514-31.142-60.674-56.06-96.401-55.657-35.727.403-78.888-24.515-96.402-55.657-17.514-31.143-60.674-56.061-96.401-55.658-35.727.404-78.887-24.515-96.402-55.657-17.514-31.142-60.674-56.061-96.401-55.658M1737.09 759.815c-35.73.417-78.89-24.502-96.4-55.658-17.5-31.155-60.67-56.074-96.4-55.657-35.73.417-78.89-24.502-96.4-55.657-17.51-31.156-60.67-56.075-96.4-55.658-35.74.417-78.9-24.502-96.4-55.657-17.51-31.156-60.67-56.074-96.41-55.658-35.73.417-78.89-24.502-96.4-55.657-17.5-31.156-60.66-56.074-96.399-55.658-35.734.417-78.895-24.502-96.401-55.657-17.507-31.155-60.667-56.074-96.402-55.657-35.734.416-78.895-24.502-96.401-55.658-17.507-31.155-60.667-56.074-96.402-55.657-35.734.416-78.895-24.502-96.401-55.658-17.506-31.155-60.667-56.074-96.402-55.657-35.734.417-78.895-24.502-96.401-55.657-17.506-31.156-60.667-56.075-96.402-55.658-35.734.417-78.895-24.502-96.401-55.657-17.506-31.156-60.667-56.075-96.401-55.658-35.735.417-78.896-24.502-96.402-55.657-17.506-31.156-60.667-56.074-96.401-55.658M1690.89 839.848c-35.74.417-78.9-24.502-96.41-55.657-17.5-31.156-60.66-56.074-96.4-55.658-35.73.417-78.89-24.502-96.4-55.657-17.5-31.156-60.67-56.074-96.4-55.658-35.73.417-78.9-24.501-96.4-55.657-17.51-31.156-60.67-56.074-96.4-55.657-35.74.416-78.9-24.502-96.4-55.658-17.511-31.155-60.671-56.074-96.406-55.657-35.735.416-78.895-24.502-96.401-55.658-17.507-31.155-60.667-56.074-96.402-55.657-35.735.417-78.895-24.502-96.401-55.658-17.507-31.155-60.667-56.074-96.402-55.657-35.735.417-78.895-24.502-96.401-55.657C420.16 85.146 377 60.227 341.265 60.644c-35.734.417-78.895-24.502-96.401-55.657-17.507-31.156-60.667-56.075-96.402-55.658-35.734.417-78.895-24.502-96.401-55.657-17.507-31.156-60.667-56.074-96.402-55.658-35.734.417-78.895-24.502-96.401-55.657-17.507-31.155-60.667-56.074-96.402-55.657M1644.68 919.881c-35.74.417-78.9-24.502-96.4-55.657-17.51-31.156-60.67-56.074-96.4-55.658-35.74.417-78.9-24.501-96.41-55.657-17.5-31.155-60.66-56.074-96.4-55.657-35.73.416-78.89-24.502-96.4-55.658-17.51-31.155-60.67-56.074-96.4-55.657-35.73.416-78.895-24.502-96.402-55.658-17.506-31.155-60.666-56.074-96.401-55.657-35.735.417-78.895-24.502-96.402-55.658-17.506-31.155-60.666-56.074-96.401-55.657-35.735.417-78.895-24.502-96.402-55.657-17.506-31.156-60.666-56.075-96.401-55.658-35.735.417-78.895-24.502-96.401-55.657-17.507-31.156-60.667-56.074-96.402-55.658-35.735.417-78.895-24.502-96.401-55.657-17.507-31.156-60.667-56.074-96.402-55.657C66.52 29.778 23.36 4.86 5.854-26.296-11.653-57.45-54.813-82.369-90.548-81.952c-35.735.416-78.895-24.502-96.401-55.658-17.507-31.155-60.667-56.074-96.402-55.657M1598.47 999.915c-35.73.415-78.89-24.502-96.4-55.658-17.51-31.155-60.67-56.074-96.4-55.657-35.74.416-78.9-24.502-96.4-55.658-17.51-31.155-60.67-56.074-96.4-55.657-35.74.417-78.9-24.502-96.41-55.658-17.5-31.155-60.66-56.074-96.4-55.657-35.732.417-78.892-24.502-96.399-55.657-17.506-31.156-60.667-56.075-96.401-55.658-35.735.417-78.895-24.502-96.402-55.657-17.506-31.156-60.667-56.075-96.401-55.658-35.735.417-78.895-24.502-96.402-55.657-17.506-31.156-60.667-56.074-96.401-55.658-35.735.417-78.895-24.501-96.402-55.657-17.506-31.156-60.667-56.074-96.401-55.657-35.735.416-78.895-24.502-96.402-55.658-17.506-31.155-60.667-56.074-96.401-55.657-35.735.416-78.895-24.502-96.402-55.658C-57.86 22.583-101.02-2.336-136.755-1.919c-35.735.417-78.895-24.502-96.402-55.658-17.506-31.155-60.666-56.074-96.401-55.657M1552.26 1079.95c-35.73.41-78.89-24.5-96.4-55.66-17.5-31.155-60.66-56.074-96.4-55.657-35.73.417-78.89-24.502-96.4-55.658-17.51-31.155-60.67-56.074-96.4-55.657-35.74.417-78.9-24.502-96.4-55.657-17.51-31.156-60.67-56.075-96.405-55.658-35.734.417-78.895-24.502-96.401-55.657-17.506-31.156-60.667-56.074-96.401-55.658-35.735.417-78.896-24.502-96.402-55.657-17.506-31.156-60.667-56.074-96.401-55.658-35.735.417-78.896-24.501-96.402-55.657-17.506-31.155-60.667-56.074-96.401-55.657-35.735.416-78.895-24.502-96.402-55.658-17.506-31.155-60.667-56.074-96.401-55.657-35.735.417-78.895-24.502-96.402-55.658-17.506-31.155-60.667-56.074-96.401-55.657-35.735.417-78.895-24.502-96.402-55.658-17.506-31.155-60.667-56.074-96.401-55.657-35.735.417-78.895-24.502-96.402-55.657-17.506-31.156-60.667-56.075-96.401-55.658M1967.59 360.577c-35.73.417-78.89-24.502-96.4-55.657-17.5-31.156-60.67-56.074-96.4-55.658-35.73.417-78.89-24.502-96.4-55.657-17.51-31.156-60.67-56.074-96.4-55.657-35.74.416-78.9-24.502-96.4-55.658-17.51-31.155-60.67-56.074-96.41-55.657-35.73.416-78.89-24.502-96.4-55.658-17.5-31.155-60.66-56.074-96.4-55.657-35.73.417-78.89-24.502-96.4-55.658-17.51-31.155-60.67-56.074-96.4-55.657-35.736.417-78.897-24.502-96.403-55.657-17.507-31.156-60.667-56.075-96.402-55.658-35.734.417-78.895-24.502-96.401-55.657-17.506-31.156-60.667-56.075-96.402-55.658-35.734.417-78.895-24.502-96.401-55.657-17.506-31.156-60.667-56.074-96.402-55.658-35.734.417-78.895-24.502-96.401-55.657-17.506-31.156-60.667-56.074-96.401-55.657-35.735.416-78.896-24.502-96.402-55.658-17.506-31.155-60.667-56.074-96.401-55.657M1921.39 440.61c-35.74.417-78.9-24.502-96.41-55.657-17.5-31.156-60.66-56.074-96.4-55.657-35.73.416-78.89-24.502-96.4-55.658-17.5-31.155-60.67-56.074-96.4-55.657-35.73.416-78.89-24.502-96.4-55.658-17.51-31.155-60.67-56.074-96.4-55.657-35.74.417-78.9-24.502-96.4-55.658-17.51-31.155-60.67-56.074-96.41-55.657-35.73.417-78.89-24.502-96.4-55.657-17.5-31.156-60.664-56.075-96.399-55.658-35.734.417-78.895-24.502-96.401-55.657-17.507-31.156-60.667-56.074-96.402-55.658-35.734.417-78.895-24.502-96.401-55.657-17.507-31.156-60.667-56.074-96.402-55.658-35.734.417-78.895-24.502-96.401-55.657-17.507-31.156-60.667-56.074-96.402-55.657-35.734.416-78.895-24.502-96.401-55.658-17.507-31.155-60.667-56.074-96.402-55.657-35.734.416-78.895-24.502-96.401-55.658-17.507-31.155-60.667-56.074-96.402-55.657M1875.18 520.644c-35.74.416-78.9-24.502-96.4-55.658-17.51-31.155-60.67-56.074-96.4-55.657-35.74.416-78.9-24.502-96.41-55.658-17.5-31.155-60.66-56.074-96.4-55.657-35.73.417-78.89-24.502-96.4-55.658-17.51-31.155-60.67-56.074-96.4-55.657-35.73.417-78.9-24.502-96.4-55.657-17.51-31.156-60.67-56.075-96.4-55.658-35.74.417-78.9-24.502-96.4-55.657-17.511-31.156-60.671-56.075-96.406-55.658-35.735.417-78.895-24.502-96.401-55.657-17.507-31.156-60.667-56.074-96.402-55.658-35.735.417-78.895-24.501-96.401-55.657-17.507-31.155-60.667-56.074-96.402-55.657-35.735.416-78.895-24.502-96.401-55.658-17.507-31.155-60.667-56.074-96.402-55.657-35.735.417-78.895-24.502-96.401-55.658-17.507-31.155-60.667-56.074-96.402-55.657-35.735.417-78.895-24.502-96.401-55.658-17.507-31.155-60.667-56.074-96.402-55.657M1828.97 600.677c-35.73.417-78.89-24.502-96.4-55.658-17.51-31.155-60.67-56.074-96.4-55.657-35.74.417-78.9-24.502-96.4-55.657-17.51-31.156-60.67-56.075-96.4-55.658-35.74.417-78.9-24.502-96.41-55.657-17.5-31.156-60.66-56.074-96.4-55.658-35.73.417-78.89-24.502-96.4-55.657-17.51-31.156-60.67-56.074-96.4-55.658-35.73.417-78.895-24.502-96.402-55.657-17.506-31.156-60.667-56.074-96.401-55.657-35.735.416-78.895-24.502-96.402-55.658-17.506-31.155-60.667-56.074-96.401-55.657-35.735.416-78.895-24.502-96.402-55.658-17.506-31.155-60.667-56.074-96.401-55.657-35.735.417-78.895-24.502-96.402-55.658-17.506-31.155-60.666-56.074-96.401-55.657-35.735.417-78.895-24.502-96.402-55.657-17.506-31.156-60.666-56.075-96.401-55.658-35.735.417-78.895-24.502-96.402-55.657-17.506-31.156-60.666-56.074-96.401-55.658M1782.76 680.71c-35.73.417-78.89-24.502-96.4-55.657-17.5-31.156-60.66-56.074-96.4-55.658-35.73.417-78.89-24.502-96.4-55.657-17.51-31.156-60.67-56.074-96.4-55.658-35.74.417-78.9-24.502-96.4-55.657-17.51-31.156-60.67-56.074-96.4-55.657-35.74.416-78.9-24.502-96.41-55.658-17.5-31.155-60.66-56.074-96.4-55.657-35.732.416-78.893-24.502-96.399-55.658-17.506-31.155-60.667-56.074-96.401-55.657-35.735.417-78.896-24.502-96.402-55.658-17.506-31.155-60.667-56.074-96.401-55.657-35.735.417-78.895-24.502-96.402-55.657-17.506-31.156-60.667-56.075-96.401-55.658-35.735.417-78.895-24.502-96.402-55.657-17.506-31.156-60.667-56.074-96.401-55.658-35.735.417-78.895-24.502-96.402-55.657-17.506-31.156-60.667-56.074-96.401-55.658-35.735.417-78.895-24.502-96.402-55.657-17.506-31.156-60.667-56.074-96.401-55.657" stroke="#1104AA" stroke-width="5"/></g><defs><clipPath id="clip0_25880_991"><path fill="#fff" d="M0 0h1270v760H0z"/></clipPath></defs></svg>